<svg width="24" height="24" fill="none" xmlns="http://www.w3.org/2000/svg"><path fill-rule="evenodd" clip-rule="evenodd" d="M4.8 5.5c-.727 0-1.3.577-1.3 1.25v10.5c0 .673.573 1.25 1.3 1.25h14.4c.727 0 1.3-.577 1.3-1.25V6.75c0-.673-.573-1.25-1.3-1.25H4.8zM2.5 6.75c0-1.252 1.047-2.25 2.3-2.25h14.4c1.253 0 2.3.998 2.3 2.25v10.5c0 1.252-1.047 2.25-2.3 2.25H4.8c-1.253 0-2.3-.998-2.3-2.25V6.75z" fill="#9DA4BD"/><path fill-rule="evenodd" clip-rule="evenodd" d="M3.6 6.7a.5.5 0 01.7-.1l7.7 5.775L19.7 6.6a.5.5 0 01.6.8l-8 6a.5.5 0 01-.6 0l-8-6a.5.5 0 01-.1-.7z" fill="#9DA4BD"/></svg>