<svg xmlns="http://www.w3.org/2000/svg" width="1920" height="1080" preserveAspectRatio="none"><g clip-path="url(&quot;#SvgjsClipPath1124&quot;)" fill="none" stroke="#2196f3" stroke-opacity=".1" stroke-width="2"><circle r="180" cx="171.11" cy="56.56"/><circle r="180" cx="782.83" cy="885.97"/><circle r="226.72" cx="294.91" cy="328.34"/><circle r="242.825" cx="229.47" cy="30.84"/><circle r="283.15" cx="1091.46" cy="431.86"/><circle r="308.805" cx="1869.03" cy="543.03"/><circle r="284.735" cx="995.22" cy="1028.61"/><circle r="121.045" cx="1016.85" cy="395.99"/><circle r="283.26" cx="1002.01" cy="354.63"/><circle r="244.715" cx="631.49" cy="206.83"/><circle r="333.91" cx="1619.75" cy="95.59"/><circle r="319.99" cx="202.68" cy="427.37"/><circle r="120.605" cx="1742.02" cy="513.31"/><circle r="224.355" cx="545.52" cy="407.59"/><circle r="183.28" cx="1432.49" cy="950.77"/><circle r="270.87" cx="606.38" cy="466.42"/><circle r="346.835" cx="1804.69" cy="404"/><circle r="199.96" cx="1634.3" cy="561.24"/><circle r="156.445" cx="234.14" cy="832.59"/><circle r="110.47" cx="518.46" cy="465.97"/><circle r="172.075" cx="857.21" cy="442.82"/></g><defs><clipPath id="SvgjsClipPath1124"><path d="M0 0h1920v1080H0z"/></clipPath></defs></svg>