<svg xmlns="http://www.w3.org/2000/svg" width="1200" height="245" preserveAspectRatio="none"><g mask="url(&quot;#a&quot;)" fill="none"><path d="M35 245L280 0h234L269 245z" fill="url(#b)"/><path d="M216 245L461 0h271.5l-245 245z" fill="url(#b)"/><path d="M429 245L674 0h163.5l-245 245zm195 0L869 0h93L717 245z" fill="url(#b)"/><path d="M1178 245L933 0h-99l245 245zm-198 0L735 0H621l245 245zm-179 0L556 0H268l245 245z" fill="url(#c)"/><path d="M594 245L349 0H244l245 245z" fill="url(#c)"/><path d="M1016.73 245L1200 61.73V245z" fill="url(#b)"/><path d="M0 245h183.27L0 61.73z" fill="url(#c)"/></g><defs><linearGradient x1="0%" y1="100%" x2="100%" y2="0%" id="b"><stop stop-color="rgba(12, 132, 228, 0.2)" offset="0"/><stop stop-opacity="0" stop-color="rgba(12, 132, 228, 0.2)" offset=".66"/></linearGradient><linearGradient x1="100%" y1="100%" x2="0%" y2="0%" id="c"><stop stop-color="rgba(12, 132, 228, 0.2)" offset="0"/><stop stop-opacity="0" stop-color="rgba(12, 132, 228, 0.2)" offset=".66"/></linearGradient><mask id="a"><path fill="#fff" d="M0 0h1200v245H0z"/></mask></defs></svg>