<svg xmlns="http://www.w3.org/2000/svg" width="1920" height="1080" preserveAspectRatio="none"><g mask="url(&quot;#SvgjsMask1007&quot;)" fill="none"><path d="M22.36 249.47l41.57 24v48l-41.57 24-41.57-24v-48zm41.57 648l41.57 24v48l-41.57 24-41.57-24v-48zm41.57-936l41.57 24v48l-41.57 24-41.57-24v-48zm0 144l41.57 24v48l-41.57 24-41.57-24v-48zm41.57 504l41.57 24v48l-41.57 24-41.57-24v-48zm-41.57 216l41.57 24v48l-41.57 24-41.57-24v-48zm0 144l41.57 24v48l-41.57 24-41.57-24v-48zm41.57 72l41.57 24v48l-41.57 24-41.57-24v-48zm83.14-144l41.57 24v48l-41.57 24-41.57-24v-48zm41.57-936l41.57 24v48l-41.57 24-41.57-24v-48zm41.57 216l41.57 24v48l-41.57 24-41.57-24v-48zm-41.57 360l41.57 24v48l-41.57 24-41.57-24v-48zm41.57 504l41.57 24v48l-41.57 24-41.57-24v-48zm41.57-1080l41.57 24v48l-41.57 24-41.57-24v-48zm0 288l41.57 24v48l-41.57 24-41.57-24v-48zm41.57 72l41.57 24v48l-41.57 24-41.57-24v-48zm-41.57 360l41.57 24v48l-41.57 24-41.57-24v-48zm124.71 360l41.57 24v48l-41.57 24-41.57-24v-48zm83.15-864l41.57 24v48l-41.57 24-41.58-24v-48zm83.14 0l41.57 24v48l-41.57 24-41.57-24v-48zm0 144l41.57 24v48l-41.57 24-41.57-24v-48zm83.14-144l41.57 24v48l-41.57 24-41.57-24v-48zm0 144l41.57 24v48l-41.57 24-41.57-24v-48zm0 432l41.57 24v48l-41.57 24-41.57-24v-48zm-41.57 72l41.57 24v48l-41.57 24-41.57-24v-48zm0 144l41.57 24v48l-41.57 24-41.57-24v-48zm124.71-360l41.57 24v48l-41.57 24-41.57-24v-48zm83.14-432l41.57 24v48l-41.57 24-41.57-24v-48zm0 720l41.57 24v48l-41.57 24-41.57-24v-48zm-41.57 72l41.57 24v48l-41.57 24-41.57-24v-48zm124.71-648l41.57 24v48l-41.57 24-41.57-24v-48zm0 576l41.57 24v48l-41.57 24-41.57-24v-48zm41.57-360l41.57 24v48l-41.57 24-41.57-24v-48zm83.14-576l41.57 24v48l-41.57 24-41.57-24v-48zm0 288l41.57 24v48l-41.57 24-41.57-24v-48zm83.14-288l41.57 24v48l-41.57 24-41.57-24v-48zm41.57 72l41.57 24v48l-41.57 24-41.57-24v-48zm41.57 72l41.57 24v48l-41.57 24-41.57-24v-48zm83.14 432l41.57 24v48l-41.57 24-41.57-24v-48zm83.14-432l41.57 24v48l-41.57 24-41.57-24v-48zm83.14-144l41.57 24v48l-41.57 24-41.57-24v-48zm41.57 72l41.58 24v48l-41.58 24-41.57-24v-48zm-41.57 72l41.57 24v48l-41.57 24-41.57-24v-48zm41.57 72l41.58 24v48l-41.58 24-41.57-24v-48zm83.15 864l41.57 24v48l-41.57 24-41.57-24v-48zm124.71-216l41.57 24v48l-41.57 24-41.57-24v-48zm0 144l41.57 24v48l-41.57 24-41.57-24v-48zm83.14-1008l41.57 24v48l-41.57 24-41.57-24v-48zm0 144l41.57 24v48l-41.57 24-41.57-24v-48zm41.57 72l41.57 24v48l-41.57 24-41.57-24v-48zm0 432l41.57 24v48l-41.57 24-41.57-24v-48zm41.57-648l41.57 24v48l-41.57 24-41.57-24v-48zm0 576l41.57 24v48l-41.57 24-41.57-24v-48zm41.57 360l41.57 24v48l-41.57 24-41.57-24v-48z" stroke="rgba(25, 88, 138, 0.05)" stroke-width="2"/><path d="M17.56 249.47a4.8 4.8 0 109.6 0 4.8 4.8 0 10-9.6 0zm41.57 24a4.8 4.8 0 109.6 0 4.8 4.8 0 10-9.6 0zm0 48a4.8 4.8 0 109.6 0 4.8 4.8 0 10-9.6 0zm-41.57 24a4.8 4.8 0 109.6 0 4.8 4.8 0 10-9.6 0zm-41.57-24a4.8 4.8 0 109.6 0 4.8 4.8 0 10-9.6 0zm0-48a4.8 4.8 0 109.6 0 4.8 4.8 0 10-9.6 0zm83.14 624a4.8 4.8 0 109.6 0 4.8 4.8 0 10-9.6 0zm41.57 24a4.8 4.8 0 109.6 0 4.8 4.8 0 10-9.6 0zm0 48a4.8 4.8 0 109.6 0 4.8 4.8 0 10-9.6 0zm-41.57 24a4.8 4.8 0 109.6 0 4.8 4.8 0 10-9.6 0zm-41.57-24a4.8 4.8 0 109.6 0 4.8 4.8 0 10-9.6 0zm0-48a4.8 4.8 0 109.6 0 4.8 4.8 0 10-9.6 0zm83.14-960a4.8 4.8 0 109.6 0 4.8 4.8 0 10-9.6 0zm41.57 24a4.8 4.8 0 109.6 0 4.8 4.8 0 10-9.6 0zm0 48a4.8 4.8 0 109.6 0 4.8 4.8 0 10-9.6 0zm-41.57 24a4.8 4.8 0 109.6 0 4.8 4.8 0 10-9.6 0zm-41.57-24a4.8 4.8 0 109.6 0 4.8 4.8 0 10-9.6 0zm0-48a4.8 4.8 0 109.6 0 4.8 4.8 0 10-9.6 0zm41.57 120a4.8 4.8 0 109.6 0 4.8 4.8 0 10-9.6 0zm41.57 24a4.8 4.8 0 109.6 0 4.8 4.8 0 10-9.6 0zm0 48a4.8 4.8 0 109.6 0 4.8 4.8 0 10-9.6 0zm-41.57 24a4.8 4.8 0 109.6 0 4.8 4.8 0 10-9.6 0zm-41.57-24a4.8 4.8 0 109.6 0 4.8 4.8 0 10-9.6 0zm0-48a4.8 4.8 0 109.6 0 4.8 4.8 0 10-9.6 0zm83.14 480a4.8 4.8 0 109.6 0 4.8 4.8 0 10-9.6 0zm41.57 24a4.8 4.8 0 109.6 0 4.8 4.8 0 10-9.6 0zm0 48a4.8 4.8 0 109.6 0 4.8 4.8 0 10-9.6 0zm-41.57 24a4.8 4.8 0 109.6 0 4.8 4.8 0 10-9.6 0zm-41.57-24a4.8 4.8 0 109.6 0 4.8 4.8 0 10-9.6 0zm0-48a4.8 4.8 0 109.6 0 4.8 4.8 0 10-9.6 0zm0 192a4.8 4.8 0 109.6 0 4.8 4.8 0 10-9.6 0zm41.57 24a4.8 4.8 0 109.6 0 4.8 4.8 0 10-9.6 0zm0 48a4.8 4.8 0 109.6 0 4.8 4.8 0 10-9.6 0zm-83.14-48a4.8 4.8 0 109.6 0 4.8 4.8 0 10-9.6 0zm83.14 144a4.8 4.8 0 109.6 0 4.8 4.8 0 10-9.6 0zm0 48a4.8 4.8 0 109.6 0 4.8 4.8 0 10-9.6 0zm-41.57 24a4.8 4.8 0 109.6 0 4.8 4.8 0 10-9.6 0zm-41.57-24a4.8 4.8 0 109.6 0 4.8 4.8 0 10-9.6 0zm124.71 24a4.8 4.8 0 109.6 0 4.8 4.8 0 10-9.6 0zm0 48a4.8 4.8 0 109.6 0 4.8 4.8 0 10-9.6 0zm-41.57 24a4.8 4.8 0 109.6 0 4.8 4.8 0 10-9.6 0zm-41.57-24a4.8 4.8 0 109.6 0 4.8 4.8 0 10-9.6 0zm124.71-216a4.8 4.8 0 109.6 0 4.8 4.8 0 10-9.6 0zm41.57 24a4.8 4.8 0 109.6 0 4.8 4.8 0 10-9.6 0zm0 48a4.8 4.8 0 109.6 0 4.8 4.8 0 10-9.6 0zm-41.57 24a4.8 4.8 0 109.6 0 4.8 4.8 0 10-9.6 0zm-41.57-24a4.8 4.8 0 109.6 0 4.8 4.8 0 10-9.6 0zm0-48a4.8 4.8 0 109.6 0 4.8 4.8 0 10-9.6 0zm83.14-960a4.8 4.8 0 109.6 0 4.8 4.8 0 10-9.6 0zm41.57 24a4.8 4.8 0 109.6 0 4.8 4.8 0 10-9.6 0zm0 48a4.8 4.8 0 109.6 0 4.8 4.8 0 10-9.6 0zm-41.57 24a4.8 4.8 0 109.6 0 4.8 4.8 0 10-9.6 0zm-41.57-24a4.8 4.8 0 109.6 0 4.8 4.8 0 10-9.6 0zm0-48a4.8 4.8 0 109.6 0 4.8 4.8 0 10-9.6 0zm83.14 192a4.8 4.8 0 109.6 0 4.8 4.8 0 10-9.6 0zm41.57 24a4.8 4.8 0 109.6 0 4.8 4.8 0 10-9.6 0zm0 48a4.8 4.8 0 109.6 0 4.8 4.8 0 10-9.6 0zm-41.57 24a4.8 4.8 0 109.6 0 4.8 4.8 0 10-9.6 0zm-41.57-24a4.8 4.8 0 109.6 0 4.8 4.8 0 10-9.6 0zm0-48a4.8 4.8 0 109.6 0 4.8 4.8 0 10-9.6 0zm0 336a4.8 4.8 0 109.6 0 4.8 4.8 0 10-9.6 0zm41.57 24a4.8 4.8 0 109.6 0 4.8 4.8 0 10-9.6 0zm0 48a4.8 4.8 0 109.6 0 4.8 4.8 0 10-9.6 0zm-41.57 24a4.8 4.8 0 109.6 0 4.8 4.8 0 10-9.6 0zm-41.57-24a4.8 4.8 0 109.6 0 4.8 4.8 0 10-9.6 0zm0-48a4.8 4.8 0 109.6 0 4.8 4.8 0 10-9.6 0zm83.14 480a4.8 4.8 0 109.6 0 4.8 4.8 0 10-9.6 0zm41.57 24a4.8 4.8 0 109.6 0 4.8 4.8 0 10-9.6 0zm0 48a4.8 4.8 0 109.6 0 4.8 4.8 0 10-9.6 0zm-41.57 24a4.8 4.8 0 109.6 0 4.8 4.8 0 10-9.6 0zm-41.57-24a4.8 4.8 0 109.6 0 4.8 4.8 0 10-9.6 0zm0-48a4.8 4.8 0 109.6 0 4.8 4.8 0 10-9.6 0zm83.14-1104a4.8 4.8 0 109.6 0 4.8 4.8 0 10-9.6 0zm41.57 24a4.8 4.8 0 109.6 0 4.8 4.8 0 10-9.6 0zm0 48a4.8 4.8 0 109.6 0 4.8 4.8 0 10-9.6 0zm-41.57 24a4.8 4.8 0 109.6 0 4.8 4.8 0 10-9.6 0zm41.57 216a4.8 4.8 0 109.6 0 4.8 4.8 0 10-9.6 0zm0 48a4.8 4.8 0 109.6 0 4.8 4.8 0 10-9.6 0zm-41.57 24a4.8 4.8 0 109.6 0 4.8 4.8 0 10-9.6 0zm-41.57-24a4.8 4.8 0 109.6 0 4.8 4.8 0 10-9.6 0zm124.71 24a4.8 4.8 0 109.6 0 4.8 4.8 0 10-9.6 0zm0 48a4.8 4.8 0 109.6 0 4.8 4.8 0 10-9.6 0zm-41.57 24a4.8 4.8 0 109.6 0 4.8 4.8 0 10-9.6 0zm-41.57-24a4.8 4.8 0 109.6 0 4.8 4.8 0 10-9.6 0zm0 288a4.8 4.8 0 109.6 0 4.8 4.8 0 10-9.6 0zm41.57 24a4.8 4.8 0 109.6 0 4.8 4.8 0 10-9.6 0zm0 48a4.8 4.8 0 109.6 0 4.8 4.8 0 10-9.6 0zm-41.57 24a4.8 4.8 0 109.6 0 4.8 4.8 0 10-9.6 0zm-41.57-24a4.8 4.8 0 109.6 0 4.8 4.8 0 10-9.6 0zm0-48a4.8 4.8 0 109.6 0 4.8 4.8 0 10-9.6 0zm166.28 336a4.8 4.8 0 109.6 0 4.8 4.8 0 10-9.6 0zm41.57 24a4.8 4.8 0 109.6 0 4.8 4.8 0 10-9.6 0zm0 48a4.8 4.8 0 109.6 0 4.8 4.8 0 10-9.6 0zm-41.57 24a4.8 4.8 0 109.6 0 4.8 4.8 0 10-9.6 0zm-41.57-24a4.8 4.8 0 109.6 0 4.8 4.8 0 10-9.6 0zm0-48a4.8 4.8 0 109.6 0 4.8 4.8 0 10-9.6 0zm124.72-888a4.8 4.8 0 109.6 0 4.8 4.8 0 10-9.6 0zm41.57 24a4.8 4.8 0 109.6 0 4.8 4.8 0 10-9.6 0zm0 48a4.8 4.8 0 109.6 0 4.8 4.8 0 10-9.6 0zm-41.57 24a4.8 4.8 0 109.6 0 4.8 4.8 0 10-9.6 0zm-41.58-24a4.8 4.8 0 109.6 0 4.8 4.8 0 10-9.6 0zm0-48a4.8 4.8 0 109.6 0 4.8 4.8 0 10-9.6 0zm124.72-24a4.8 4.8 0 109.6 0 4.8 4.8 0 10-9.6 0zm41.57 24a4.8 4.8 0 109.6 0 4.8 4.8 0 10-9.6 0zm0 48a4.8 4.8 0 109.6 0 4.8 4.8 0 10-9.6 0zm-41.57 24a4.8 4.8 0 109.6 0 4.8 4.8 0 10-9.6 0zm0 48a4.8 4.8 0 109.6 0 4.8 4.8 0 10-9.6 0zm41.57 24a4.8 4.8 0 109.6 0 4.8 4.8 0 10-9.6 0zm0 48a4.8 4.8 0 109.6 0 4.8 4.8 0 10-9.6 0zm-41.57 24a4.8 4.8 0 109.6 0 4.8 4.8 0 10-9.6 0zm-41.57-24a4.8 4.8 0 109.6 0 4.8 4.8 0 10-9.6 0zm0-48a4.8 4.8 0 109.6 0 4.8 4.8 0 10-9.6 0zm124.71-168a4.8 4.8 0 109.6 0 4.8 4.8 0 10-9.6 0zm41.57 24a4.8 4.8 0 109.6 0 4.8 4.8 0 10-9.6 0zm0 48a4.8 4.8 0 109.6 0 4.8 4.8 0 10-9.6 0zm-41.57 24a4.8 4.8 0 109.6 0 4.8 4.8 0 10-9.6 0zm0 48a4.8 4.8 0 109.6 0 4.8 4.8 0 10-9.6 0zm41.57 24a4.8 4.8 0 109.6 0 4.8 4.8 0 10-9.6 0zm0 48a4.8 4.8 0 109.6 0 4.8 4.8 0 10-9.6 0zm-41.57 24a4.8 4.8 0 109.6 0 4.8 4.8 0 10-9.6 0zm0 336a4.8 4.8 0 109.6 0 4.8 4.8 0 10-9.6 0zm41.57 24a4.8 4.8 0 109.6 0 4.8 4.8 0 10-9.6 0zm0 48a4.8 4.8 0 109.6 0 4.8 4.8 0 10-9.6 0zm-41.57 24a4.8 4.8 0 109.6 0 4.8 4.8 0 10-9.6 0zm-41.57-24a4.8 4.8 0 109.6 0 4.8 4.8 0 10-9.6 0zm0-48a4.8 4.8 0 109.6 0 4.8 4.8 0 10-9.6 0zm41.57 120a4.8 4.8 0 109.6 0 4.8 4.8 0 10-9.6 0zm-41.57 24a4.8 4.8 0 109.6 0 4.8 4.8 0 10-9.6 0zm-41.57-24a4.8 4.8 0 109.6 0 4.8 4.8 0 10-9.6 0zm0-48a4.8 4.8 0 109.6 0 4.8 4.8 0 10-9.6 0zm41.57 120a4.8 4.8 0 109.6 0 4.8 4.8 0 10-9.6 0zm41.57 24a4.8 4.8 0 109.6 0 4.8 4.8 0 10-9.6 0zm0 48a4.8 4.8 0 109.6 0 4.8 4.8 0 10-9.6 0zm-41.57 24a4.8 4.8 0 109.6 0 4.8 4.8 0 10-9.6 0zm-41.57-24a4.8 4.8 0 109.6 0 4.8 4.8 0 10-9.6 0zm0-48a4.8 4.8 0 109.6 0 4.8 4.8 0 10-9.6 0zm166.28-384a4.8 4.8 0 109.6 0 4.8 4.8 0 10-9.6 0zm41.57 24a4.8 4.8 0 109.6 0 4.8 4.8 0 10-9.6 0zm0 48a4.8 4.8 0 109.6 0 4.8 4.8 0 10-9.6 0zm-41.57 24a4.8 4.8 0 109.6 0 4.8 4.8 0 10-9.6 0zm-41.57-24a4.8 4.8 0 109.6 0 4.8 4.8 0 10-9.6 0zm0-48a4.8 4.8 0 109.6 0 4.8 4.8 0 10-9.6 0zm124.71-456a4.8 4.8 0 109.6 0 4.8 4.8 0 10-9.6 0zm41.57 24a4.8 4.8 0 109.6 0 4.8 4.8 0 10-9.6 0zm0 48a4.8 4.8 0 109.6 0 4.8 4.8 0 10-9.6 0zm-41.57 24a4.8 4.8 0 109.6 0 4.8 4.8 0 10-9.6 0zm-41.57-24a4.8 4.8 0 109.6 0 4.8 4.8 0 10-9.6 0zm0-48a4.8 4.8 0 109.6 0 4.8 4.8 0 10-9.6 0zm41.57 696a4.8 4.8 0 109.6 0 4.8 4.8 0 10-9.6 0zm41.57 24a4.8 4.8 0 109.6 0 4.8 4.8 0 10-9.6 0zm0 48a4.8 4.8 0 109.6 0 4.8 4.8 0 10-9.6 0zm-41.57 24a4.8 4.8 0 109.6 0 4.8 4.8 0 10-9.6 0zm-41.57-24a4.8 4.8 0 109.6 0 4.8 4.8 0 10-9.6 0zm0-48a4.8 4.8 0 109.6 0 4.8 4.8 0 10-9.6 0zm41.57 120a4.8 4.8 0 109.6 0 4.8 4.8 0 10-9.6 0zm-41.57 24a4.8 4.8 0 109.6 0 4.8 4.8 0 10-9.6 0zm-41.57-24a4.8 4.8 0 109.6 0 4.8 4.8 0 10-9.6 0zm0-48a4.8 4.8 0 109.6 0 4.8 4.8 0 10-9.6 0zm166.28-672a4.8 4.8 0 109.6 0 4.8 4.8 0 10-9.6 0zm41.57 24a4.8 4.8 0 109.6 0 4.8 4.8 0 10-9.6 0zm0 48a4.8 4.8 0 109.6 0 4.8 4.8 0 10-9.6 0zm-41.57 24a4.8 4.8 0 109.6 0 4.8 4.8 0 10-9.6 0zm-41.57-24a4.8 4.8 0 109.6 0 4.8 4.8 0 10-9.6 0zm0-48a4.8 4.8 0 109.6 0 4.8 4.8 0 10-9.6 0zm41.57 552a4.8 4.8 0 109.6 0 4.8 4.8 0 10-9.6 0zm41.57 24a4.8 4.8 0 109.6 0 4.8 4.8 0 10-9.6 0zm0 48a4.8 4.8 0 109.6 0 4.8 4.8 0 10-9.6 0zm-41.57 24a4.8 4.8 0 109.6 0 4.8 4.8 0 10-9.6 0zm41.57-456a4.8 4.8 0 109.6 0 4.8 4.8 0 10-9.6 0zm41.57 24a4.8 4.8 0 109.6 0 4.8 4.8 0 10-9.6 0zm0 48a4.8 4.8 0 109.6 0 4.8 4.8 0 10-9.6 0zm-41.57 24a4.8 4.8 0 109.6 0 4.8 4.8 0 10-9.6 0zm-41.57-24a4.8 4.8 0 109.6 0 4.8 4.8 0 10-9.6 0zm0-48a4.8 4.8 0 109.6 0 4.8 4.8 0 10-9.6 0zm124.71-600a4.8 4.8 0 109.6 0 4.8 4.8 0 10-9.6 0zm41.57 24a4.8 4.8 0 109.6 0 4.8 4.8 0 10-9.6 0zm0 48a4.8 4.8 0 109.6 0 4.8 4.8 0 10-9.6 0zm-41.57 24a4.8 4.8 0 109.6 0 4.8 4.8 0 10-9.6 0zm-41.57-24a4.8 4.8 0 109.6 0 4.8 4.8 0 10-9.6 0zm0-48a4.8 4.8 0 109.6 0 4.8 4.8 0 10-9.6 0zm41.57 264a4.8 4.8 0 109.6 0 4.8 4.8 0 10-9.6 0zm41.57 24a4.8 4.8 0 109.6 0 4.8 4.8 0 10-9.6 0zm0 48a4.8 4.8 0 109.6 0 4.8 4.8 0 10-9.6 0zm-41.57 24a4.8 4.8 0 109.6 0 4.8 4.8 0 10-9.6 0zm-41.57-24a4.8 4.8 0 109.6 0 4.8 4.8 0 10-9.6 0zm0-48a4.8 4.8 0 109.6 0 4.8 4.8 0 10-9.6 0zm124.71-312a4.8 4.8 0 109.6 0 4.8 4.8 0 10-9.6 0zm41.57 24a4.8 4.8 0 109.6 0 4.8 4.8 0 10-9.6 0zm0 48a4.8 4.8 0 109.6 0 4.8 4.8 0 10-9.6 0zm-41.57 24a4.8 4.8 0 109.6 0 4.8 4.8 0 10-9.6 0zm83.14 0a4.8 4.8 0 109.6 0 4.8 4.8 0 10-9.6 0zm0 48a4.8 4.8 0 109.6 0 4.8 4.8 0 10-9.6 0zm-41.57 24a4.8 4.8 0 109.6 0 4.8 4.8 0 10-9.6 0zm-41.57-24a4.8 4.8 0 109.6 0 4.8 4.8 0 10-9.6 0zm124.71 24a4.8 4.8 0 109.6 0 4.8 4.8 0 10-9.6 0zm0 48a4.8 4.8 0 109.6 0 4.8 4.8 0 10-9.6 0zm-41.57 24a4.8 4.8 0 109.6 0 4.8 4.8 0 10-9.6 0zm-41.57-24a4.8 4.8 0 109.6 0 4.8 4.8 0 10-9.6 0zm124.71 360a4.8 4.8 0 109.6 0 4.8 4.8 0 10-9.6 0zm41.57 24a4.8 4.8 0 109.6 0 4.8 4.8 0 10-9.6 0zm0 48a4.8 4.8 0 109.6 0 4.8 4.8 0 10-9.6 0zm-41.57 24a4.8 4.8 0 109.6 0 4.8 4.8 0 10-9.6 0zm-41.57-24a4.8 4.8 0 109.6 0 4.8 4.8 0 10-9.6 0zm0-48a4.8 4.8 0 109.6 0 4.8 4.8 0 10-9.6 0zm124.71-456a4.8 4.8 0 109.6 0 4.8 4.8 0 10-9.6 0zm41.57 24a4.8 4.8 0 109.6 0 4.8 4.8 0 10-9.6 0zm0 48a4.8 4.8 0 109.6 0 4.8 4.8 0 10-9.6 0zm-41.57 24a4.8 4.8 0 109.6 0 4.8 4.8 0 10-9.6 0zm-41.57-24a4.8 4.8 0 109.6 0 4.8 4.8 0 10-9.6 0zm0-48a4.8 4.8 0 109.6 0 4.8 4.8 0 10-9.6 0zm124.71-168a4.8 4.8 0 109.6 0 4.8 4.8 0 10-9.6 0zm41.57 24a4.8 4.8 0 109.6 0 4.8 4.8 0 10-9.6 0zm0 48a4.8 4.8 0 109.6 0 4.8 4.8 0 10-9.6 0zm-41.57 24a4.8 4.8 0 109.6 0 4.8 4.8 0 10-9.6 0zm-41.57-24a4.8 4.8 0 109.6 0 4.8 4.8 0 10-9.6 0zm0-48a4.8 4.8 0 109.6 0 4.8 4.8 0 10-9.6 0zm124.72 72a4.8 4.8 0 109.6 0 4.8 4.8 0 10-9.6 0zm0 48a4.8 4.8 0 109.6 0 4.8 4.8 0 10-9.6 0zm-41.58 24a4.8 4.8 0 109.6 0 4.8 4.8 0 10-9.6 0zm-41.57-24a4.8 4.8 0 109.6 0 4.8 4.8 0 10-9.6 0zm41.57 72a4.8 4.8 0 109.6 0 4.8 4.8 0 10-9.6 0zm-41.57 24a4.8 4.8 0 109.6 0 4.8 4.8 0 10-9.6 0zm83.15 0a4.8 4.8 0 109.6 0 4.8 4.8 0 10-9.6 0zm0 48a4.8 4.8 0 109.6 0 4.8 4.8 0 10-9.6 0zm-41.58 24a4.8 4.8 0 109.6 0 4.8 4.8 0 10-9.6 0zm-41.57-24a4.8 4.8 0 109.6 0 4.8 4.8 0 10-9.6 0zm124.72 792a4.8 4.8 0 109.6 0 4.8 4.8 0 10-9.6 0zm41.57 24a4.8 4.8 0 109.6 0 4.8 4.8 0 10-9.6 0zm0 48a4.8 4.8 0 109.6 0 4.8 4.8 0 10-9.6 0zm-41.57 24a4.8 4.8 0 109.6 0 4.8 4.8 0 10-9.6 0zm-41.57-24a4.8 4.8 0 109.6 0 4.8 4.8 0 10-9.6 0zm0-48a4.8 4.8 0 109.6 0 4.8 4.8 0 10-9.6 0zm166.28-240a4.8 4.8 0 109.6 0 4.8 4.8 0 10-9.6 0zm41.57 24a4.8 4.8 0 109.6 0 4.8 4.8 0 10-9.6 0zm0 48a4.8 4.8 0 109.6 0 4.8 4.8 0 10-9.6 0zm-41.57 24a4.8 4.8 0 109.6 0 4.8 4.8 0 10-9.6 0zm-41.57-24a4.8 4.8 0 109.6 0 4.8 4.8 0 10-9.6 0zm0-48a4.8 4.8 0 109.6 0 4.8 4.8 0 10-9.6 0zm41.57 120a4.8 4.8 0 109.6 0 4.8 4.8 0 10-9.6 0zm41.57 24a4.8 4.8 0 109.6 0 4.8 4.8 0 10-9.6 0zm0 48a4.8 4.8 0 109.6 0 4.8 4.8 0 10-9.6 0zm-41.57 24a4.8 4.8 0 109.6 0 4.8 4.8 0 10-9.6 0zm-41.57-24a4.8 4.8 0 109.6 0 4.8 4.8 0 10-9.6 0zm0-48a4.8 4.8 0 109.6 0 4.8 4.8 0 10-9.6 0zm124.71-1032a4.8 4.8 0 109.6 0 4.8 4.8 0 10-9.6 0zm41.57 24a4.8 4.8 0 109.6 0 4.8 4.8 0 10-9.6 0zm0 48a4.8 4.8 0 109.6 0 4.8 4.8 0 10-9.6 0zm-41.57 24a4.8 4.8 0 109.6 0 4.8 4.8 0 10-9.6 0zm-41.57-24a4.8 4.8 0 109.6 0 4.8 4.8 0 10-9.6 0zm0-48a4.8 4.8 0 109.6 0 4.8 4.8 0 10-9.6 0zm41.57 120a4.8 4.8 0 109.6 0 4.8 4.8 0 10-9.6 0zm41.57 24a4.8 4.8 0 109.6 0 4.8 4.8 0 10-9.6 0zm0 48a4.8 4.8 0 109.6 0 4.8 4.8 0 10-9.6 0zm-41.57 24a4.8 4.8 0 109.6 0 4.8 4.8 0 10-9.6 0zm-41.57-24a4.8 4.8 0 109.6 0 4.8 4.8 0 10-9.6 0zm0-48a4.8 4.8 0 109.6 0 4.8 4.8 0 10-9.6 0zm124.71 72a4.8 4.8 0 109.6 0 4.8 4.8 0 10-9.6 0zm0 48a4.8 4.8 0 109.6 0 4.8 4.8 0 10-9.6 0zm-41.57 24a4.8 4.8 0 109.6 0 4.8 4.8 0 10-9.6 0zm-41.57-24a4.8 4.8 0 109.6 0 4.8 4.8 0 10-9.6 0zm41.57 360a4.8 4.8 0 109.6 0 4.8 4.8 0 10-9.6 0zm41.57 24a4.8 4.8 0 109.6 0 4.8 4.8 0 10-9.6 0zm0 48a4.8 4.8 0 109.6 0 4.8 4.8 0 10-9.6 0zm-41.57 24a4.8 4.8 0 109.6 0 4.8 4.8 0 10-9.6 0zm-41.57-24a4.8 4.8 0 109.6 0 4.8 4.8 0 10-9.6 0zm0-48a4.8 4.8 0 109.6 0 4.8 4.8 0 10-9.6 0zm83.14-672a4.8 4.8 0 109.6 0 4.8 4.8 0 10-9.6 0zm41.57 24a4.8 4.8 0 109.6 0 4.8 4.8 0 10-9.6 0zm0 48a4.8 4.8 0 109.6 0 4.8 4.8 0 10-9.6 0zm-41.57 24a4.8 4.8 0 109.6 0 4.8 4.8 0 10-9.6 0zm0 480a4.8 4.8 0 109.6 0 4.8 4.8 0 10-9.6 0zm41.57 24a4.8 4.8 0 109.6 0 4.8 4.8 0 10-9.6 0zm0 48a4.8 4.8 0 109.6 0 4.8 4.8 0 10-9.6 0zm-83.14-48a4.8 4.8 0 109.6 0 4.8 4.8 0 10-9.6 0zm83.14 336a4.8 4.8 0 109.6 0 4.8 4.8 0 10-9.6 0zm41.57 24a4.8 4.8 0 109.6 0 4.8 4.8 0 10-9.6 0zm0 48a4.8 4.8 0 109.6 0 4.8 4.8 0 10-9.6 0zm-41.57 24a4.8 4.8 0 109.6 0 4.8 4.8 0 10-9.6 0zm-41.57-24a4.8 4.8 0 109.6 0 4.8 4.8 0 10-9.6 0zm0-48a4.8 4.8 0 109.6 0 4.8 4.8 0 10-9.6 0z" fill="rgba(25, 88, 138, 0.05)"/><path d="M13.98 34.24l12.12 7v14l-12.12 7-12.12-7v-14zm12.12 357l12.13 7v14l-12.13 7-12.12-7v-14zm0 252l12.13 7v14l-12.13 7-12.12-7v-14zm0 210l12.13 7v14l-12.13 7-12.12-7v-14zm12.13-861l12.12 7v14l-12.12 7-12.13-7v-14zm12.12 21l12.13 7v14l-12.13 7-12.12-7v-14zm-12.12 399l12.12 7v14l-12.12 7-12.13-7v-14zm0 210l12.12 7v14l-12.12 7-12.13-7v-14zm12.12 63l12.13 7v14l-12.13 7-12.12-7v-14zm-12.12 21l12.12 7v14l-12.12 7-12.13-7v-14zm0 126l12.12 7v14l-12.12 7-12.13-7v-14zm0 126l12.12 7v14l-12.12 7-12.13-7v-14zm12.12 63l12.13 7v14l-12.13 7-12.12-7v-14zm24.25-756l12.13 7v14l-12.13 7-12.12-7v-14zm-12.12 189l12.12 7v14l-12.12 7-12.13-7v-14zm0 126l12.12 7v14l-12.12 7-12.13-7v-14zm0 84l12.12 7v14l-12.12 7-12.13-7v-14zm12.12 189l12.13 7v14l-12.13 7-12.12-7v-14zm-12.12 189l12.12 7v14l-12.12 7-12.13-7v-14zm24.25-1008l12.12 7v14l-12.12 7-12.13-7v-14zm0 42l12.12 7v14l-12.12 7-12.13-7v-14zm12.12 483l12.13 7v14l-12.13 7-12.12-7v-14zm-12.12 105l12.12 7v14l-12.12 7-12.13-7v-14zm0 252l12.12 7v14l-12.12 7-12.13-7v-14zm24.25-210l12.12 7v14l-12.12 7-12.13-7v-14zm12.12 273l12.13 7v14l-12.13 7-12.12-7v-14zm0 42l12.13 7v14l-12.13 7-12.12-7v-14zm-12.12 21l12.12 7v14l-12.12 7-12.13-7v-14zm36.37-819l12.13 7v14l-12.13 7-12.12-7v-14zm-12.12 63l12.12 7v14l-12.12 7-12.13-7v-14zm12.12 315l12.13 7v14l-12.13 7-12.12-7v-14zm24.25-210l12.13 7v14l-12.13 7-12.12-7v-14zm-12.12 63l12.12 7v14l-12.12 7-12.13-7v-14zm0 42l12.12 7v14l-12.12 7-12.13-7v-14zm0 546l12.12 7v14l-12.12 7-12.13-7v-14zm12.12 21l12.13 7v14l-12.13 7-12.12-7v-14zm24.25-336l12.13 7v14l-12.13 7-12.12-7v-14zm0 168l12.13 7v14l-12.13 7-12.12-7v-14zm24.25-840l12.12 7v14l-12.12 7-12.12-7v-14zm0 210l12.12 7v14l-12.12 7-12.12-7v-14zm-12.12 399l12.12 7v14l-12.12 7-12.13-7v-14zm0 42l12.12 7v14l-12.12 7-12.13-7v-14zm12.12 105l12.12 7v14l-12.12 7-12.12-7v-14zm0 84l12.12 7v14l-12.12 7-12.12-7v-14zm24.25-882l12.12 7v14l-12.12 7-12.13-7v-14zm0 42l12.12 7v14l-12.12 7-12.13-7v-14zm0 84l12.12 7v14l-12.12 7-12.13-7v-14zm0 420l12.12 7v14l-12.12 7-12.13-7v-14zm0 294l12.12 7v14l-12.12 7-12.13-7v-14zm0 126l12.12 7v14l-12.12 7-12.13-7v-14zm0 42l12.12 7v14l-12.12 7-12.13-7v-14zm12.12-819l12.13 7v14l-12.13 7-12.12-7v-14zm12.13 315l12.12 7v14l-12.12 7-12.13-7v-14zm-12.13 525l12.13 7v14l-12.13 7-12.12-7v-14zm24.25-1050l12.13 7v14l-12.13 7-12.12-7v-14zm12.13 63l12.12 7v14l-12.12 7-12.13-7v-14zm0 252l12.12 7v14l-12.12 7-12.13-7v-14zm-12.13 105l12.13 7v14l-12.13 7-12.12-7v-14zm0 42l12.13 7v14l-12.13 7-12.12-7v-14zm0 168l12.13 7v14l-12.13 7-12.12-7v-14zm0 378l12.13 7v14l-12.13 7-12.12-7v-14zm12.13 21l12.12 7v14l-12.12 7-12.13-7v-14zm12.12-609l12.13 7v14l-12.13 7-12.12-7v-14zm0 84l12.13 7v14l-12.13 7-12.12-7v-14zm0 42l12.13 7v14l-12.13 7-12.12-7v-14zm0 84l12.13 7v14l-12.13 7-12.12-7v-14zm12.13 399l12.12 7v14l-12.12 7-12.13-7v-14zm24.25-630l12.12 7v14l-12.12 7-12.13-7v-14zm0 378l12.12 7v14l-12.12 7-12.13-7v-14zm-12.13 105l12.13 7v14l-12.13 7-12.12-7v-14zm36.38-357l12.12 7v14l-12.12 7-12.13-7v-14zm-12.13 105l12.13 7v14l-12.13 7-12.12-7v-14zm0 252l12.13 7v14l-12.13 7-12.12-7v-14zm0 126l12.13 7v14l-12.13 7-12.12-7v-14zm24.25-1008l12.13 7v14l-12.13 7-12.12-7v-14zm0 42l12.13 7v14l-12.13 7-12.12-7v-14zm0 84l12.13 7v14l-12.13 7-12.12-7v-14zm12.13 63l12.12 7v14l-12.12 7-12.13-7v-14zm0 210l12.12 7v14l-12.12 7-12.13-7v-14zm0 84l12.12 7v14l-12.12 7-12.13-7v-14zm0 42l12.12 7v14l-12.12 7-12.13-7v-14zm-12.13 231l12.13 7v14l-12.13 7-12.12-7v-14zm12.13 21l12.12 7v14l-12.12 7-12.13-7v-14zm24.25-420l12.12 7v14l-12.12 7-12.13-7v-14zm-12.13 147l12.13 7v14l-12.13 7-12.12-7v-14zm12.13 21l12.12 7v14l-12.12 7-12.13-7v-14zm-12.13 105l12.13 7v14l-12.13 7-12.12-7v-14zm12.13 105l12.12 7v14l-12.12 7-12.13-7v-14zm24.24-672l12.13 7v14l-12.13 7-12.12-7v-14zm-12.12 273l12.12 7v14l-12.12 7-12.12-7v-14zm0 42l12.12 7v14l-12.12 7-12.12-7v-14zm0 84l12.12 7v14l-12.12 7-12.12-7v-14zm0 84l12.12 7v14l-12.12 7-12.12-7v-14zm12.12 21l12.13 7v14l-12.13 7-12.12-7v-14zm0 294l12.13 7v14l-12.13 7-12.12-7v-14zm24.25-840l12.13 7v14l-12.13 7-12.12-7v-14zm-12.12 189l12.12 7v14l-12.12 7-12.13-7v-14zm12.12 483l12.13 7v14l-12.13 7-12.12-7v-14zm-12.12 105l12.12 7v14l-12.12 7-12.13-7v-14zm36.37-651l12.13 7v14l-12.13 7-12.12-7v-14zm0 294l12.13 7v14l-12.13 7-12.12-7v-14zm-12.12 21l12.12 7v14l-12.12 7-12.13-7v-14zm0 252l12.12 7v14l-12.12 7-12.13-7v-14zm0 210l12.12 7v14l-12.12 7-12.13-7v-14zm0 84l12.12 7v14l-12.12 7-12.13-7v-14zm36.37-987l12.13 7v14l-12.13 7-12.12-7v-14zm-12.12 315l12.12 7v14l-12.12 7-12.13-7v-14zm12.12 63l12.13 7v14l-12.13 7-12.12-7v-14zm0 210l12.13 7v14l-12.13 7-12.12-7v-14zm-12.12 21l12.12 7v14l-12.12 7-12.13-7v-14zm0 42l12.12 7v14l-12.12 7-12.13-7v-14zm12.12 21l12.13 7v14l-12.13 7-12.12-7v-14zm-12.12 147l12.12 7v14l-12.12 7-12.13-7v-14zm0 210l12.12 7v14l-12.12 7-12.13-7v-14zm36.37-777l12.13 7v14l-12.13 7-12.12-7v-14zm-12.12 735l12.12 7v14l-12.12 7-12.13-7v-14zm24.25-546l12.12 7v14l-12.12 7-12.13-7v-14zm0 84l12.12 7v14l-12.12 7-12.13-7v-14zm0 252l12.12 7v14l-12.12 7-12.13-7v-14zm0 168l12.12 7v14l-12.12 7-12.13-7v-14zm24.25-756l12.12 7v14l-12.12 7-12.13-7v-14zm0 126l12.12 7v14l-12.12 7-12.13-7v-14zm0 252l12.12 7v14l-12.12 7-12.13-7v-14zm36.37-525l12.12 7v14l-12.12 7-12.12-7v-14zm-12.12 21l12.12 7v14l-12.12 7-12.13-7v-14zm0 294l12.12 7v14l-12.12 7-12.13-7v-14zm0 126l12.12 7v14l-12.12 7-12.13-7v-14zm24.25-378l12.12 7v14l-12.12 7-12.13-7v-14zm12.12 21l12.12 7v14l-12.12 7-12.12-7v-14zm0 378l12.12 7v14l-12.12 7-12.12-7v-14zm0 168l12.12 7v14l-12.12 7-12.12-7v-14zm-12.12 357l12.12 7v14l-12.12 7-12.13-7v-14zm36.37-945l12.12 7v14l-12.12 7-12.13-7v-14zm-12.13 21l12.13 7v14l-12.13 7-12.12-7v-14zm0 42l12.13 7v14l-12.13 7-12.12-7v-14zm0 210l12.13 7v14l-12.13 7-12.12-7v-14zm0 294l12.13 7v14l-12.13 7-12.12-7v-14zm12.13 21l12.12 7v14l-12.12 7-12.13-7v-14zm-12.13 63l12.13 7v14l-12.13 7-12.12-7v-14zm24.25-420l12.13 7v14l-12.13 7-12.12-7v-14zm12.13 231l12.12 7v14l-12.12 7-12.13-7v-14zm-12.13 483l12.13 7v14l-12.13 7-12.12-7v-14zm36.38-777l12.12 7v14l-12.12 7-12.13-7v-14zm-12.13 231l12.13 7v14l-12.13 7-12.12-7v-14zm0 210l12.13 7v14l-12.13 7-12.12-7v-14zm12.13 147l12.12 7v14l-12.12 7-12.13-7v-14zm12.12-357l12.13 7v14l-12.13 7-12.12-7v-14zm24.25-462l12.13 7v14l-12.13 7-12.12-7v-14zm24.25 42l12.13 7v14l-12.13 7-12.12-7v-14zm0 168l12.13 7v14l-12.13 7-12.12-7v-14zm12.13 21l12.12 7v14l-12.12 7-12.13-7v-14zm0 126l12.12 7v14l-12.12 7-12.13-7v-14zm-12.13 21l12.13 7v14l-12.13 7-12.12-7v-14zm0 378l12.13 7v14l-12.13 7-12.12-7v-14zm0 84l12.13 7v14l-12.13 7-12.12-7v-14zm24.25-588l12.13 7v14l-12.13 7-12.12-7v-14zm0 42l12.13 7v14l-12.13 7-12.12-7v-14zm0 168l12.13 7v14l-12.13 7-12.12-7v-14zm0 84l12.13 7v14l-12.13 7-12.12-7v-14zm0 420l12.13 7v14l-12.13 7-12.12-7v-14zm0 42l12.13 7v14l-12.13 7-12.12-7v-14zm12.13 21l12.12 7v14l-12.12 7-12.13-7v-14zm12.12-987l12.12 7v14l-12.12 7-12.12-7v-14zm12.12 189l12.13 7v14l-12.13 7-12.12-7v-14zm0 504l12.13 7v14l-12.13 7-12.12-7v-14zm24.25-588l12.13 7v14l-12.13 7-12.12-7v-14zm-12.12 63l12.12 7v14l-12.12 7-12.13-7v-14zm12.12 399l12.13 7v14l-12.13 7-12.12-7v-14zm-12.12 315l12.12 7v14l-12.12 7-12.13-7v-14zm24.25-840l12.12 7v14l-12.12 7-12.13-7v-14zm12.12 147l12.13 7v14l-12.13 7-12.12-7v-14zm-12.12 441l12.12 7v14l-12.12 7-12.13-7v-14zm36.37-273l12.13 7v14l-12.13 7-12.12-7v-14zm-12.12 273l12.12 7v14l-12.12 7-12.13-7v-14zm0 210l12.12 7v14l-12.12 7-12.13-7v-14zm24.25-588l12.12 7v14l-12.12 7-12.13-7v-14zm12.12 525l12.13 7v14l-12.13 7-12.12-7v-14zm24.25-294l12.13 7v14l-12.13 7-12.12-7v-14zm-12.12 231l12.12 7v14l-12.12 7-12.13-7v-14zm12.12 189l12.13 7v14l-12.13 7-12.12-7v-14zm12.13-819l12.12 7v14l-12.12 7-12.13-7v-14zm12.12 105l12.13 7v14l-12.13 7-12.12-7v-14zm0 462l12.13 7v14l-12.13 7-12.12-7v-14zm12.13-735l12.12 7v14l-12.12 7-12.13-7v-14zm0 126l12.12 7v14l-12.12 7-12.13-7v-14zm12.12 273l12.13 7v14l-12.13 7-12.12-7v-14zm-12.12 21l12.12 7v14l-12.12 7-12.13-7v-14zm12.12 105l12.13 7v14l-12.13 7-12.12-7v-14zm-12.12 189l12.12 7v14l-12.12 7-12.13-7v-14zm12.12 63l12.13 7v14l-12.13 7-12.12-7v-14zm-12.12 231l12.12 7v14l-12.12 7-12.13-7v-14zm12.12 63l12.13 7v14l-12.13 7-12.12-7v-14zm12.13-987l12.12 7v14l-12.12 7-12.13-7v-14zm0 504l12.12 7v14l-12.12 7-12.13-7v-14zm12.12 189l12.12 7v14l-12.12 7-12.12-7v-14zm-12.12 273l12.12 7v14l-12.12 7-12.13-7v-14zm24.24-966l12.13 7v14l-12.13 7-12.12-7v-14zm0 168l12.13 7v14l-12.13 7-12.12-7v-14zm0 378l12.13 7v14l-12.13 7-12.12-7v-14zm12.13 21l12.12 7v14l-12.12 7-12.13-7v-14zm0 42l12.12 7v14l-12.12 7-12.13-7v-14zm12.12-147l12.13 7v14l-12.13 7-12.12-7v-14zm12.13 21l12.12 7v14l-12.12 7-12.13-7v-14zm-12.13 105l12.13 7v14l-12.13 7-12.12-7v-14zm0 126l12.13 7v14l-12.13 7-12.12-7v-14zm12.13 63l12.12 7v14l-12.12 7-12.13-7v-14zm-12.13 63l12.13 7v14l-12.13 7-12.12-7v-14zm24.25-588l12.13 7v14l-12.13 7-12.12-7v-14zm0 84l12.13 7v14l-12.13 7-12.12-7v-14zm0 42l12.13 7v14l-12.13 7-12.12-7v-14zm0 42l12.13 7v14l-12.13 7-12.12-7v-14zm0 210l12.13 7v14l-12.13 7-12.12-7v-14zm12.13 63l12.12 7v14l-12.12 7-12.13-7v-14zm-12.13 189l12.13 7v14l-12.13 7-12.12-7v-14zm24.25-420l12.13 7v14l-12.13 7-12.12-7v-14zm12.13 105l12.12 7v14l-12.12 7-12.13-7v-14zm-12.13 105l12.13 7v14l-12.13 7-12.12-7v-14zm12.13 189l12.12 7v14l-12.12 7-12.13-7v-14zm0 84l12.12 7v14l-12.12 7-12.13-7v-14zm24.25-714l12.12 7v14l-12.12 7-12.13-7v-14zm-12.13 231l12.13 7v14l-12.13 7-12.12-7v-14zm0 378l12.13 7v14l-12.13 7-12.12-7v-14zm36.38-861l12.12 7v14l-12.12 7-12.13-7v-14zm0 84l12.12 7v14l-12.12 7-12.13-7v-14zm0 42l12.12 7v14l-12.12 7-12.13-7v-14zm-12.13 231l12.13 7v14l-12.13 7-12.12-7v-14zm12.13 357l12.12 7v14l-12.12 7-12.13-7v-14zm-12.13 21l12.13 7v14l-12.13 7-12.12-7v-14zm12.13 63l12.12 7v14l-12.12 7-12.13-7v-14zm-12.13 105l12.13 7v14l-12.13 7-12.12-7v-14zm24.25-924l12.13 7v14l-12.13 7-12.12-7v-14zm12.13 63l12.12 7v14l-12.12 7-12.13-7v-14zm0 126l12.12 7v14l-12.12 7-12.13-7v-14zm-12.13 273l12.13 7v14l-12.13 7-12.12-7v-14zm12.13 21l12.12 7v14l-12.12 7-12.13-7v-14zm0 42l12.12 7v14l-12.12 7-12.13-7v-14zm-12.13 21l12.13 7v14l-12.13 7-12.12-7v-14zm12.13 273l12.12 7v14l-12.12 7-12.13-7v-14zm-12.13 105l12.13 7v14l-12.13 7-12.12-7v-14zm36.38-567l12.12 7v14l-12.12 7-12.13-7v-14zm0 42l12.12 7v14l-12.12 7-12.13-7v-14zm0 42l12.12 7v14l-12.12 7-12.13-7v-14zm-12.13 105l12.13 7v14l-12.13 7-12.12-7v-14zm0 294l12.13 7v14l-12.13 7-12.12-7v-14zm12.13 189l12.12 7v14l-12.12 7-12.13-7v-14zm12.12-651l12.12 7v14l-12.12 7-12.12-7v-14zm0 168l12.12 7v14l-12.12 7-12.12-7v-14zm0 168l12.12 7v14l-12.12 7-12.12-7v-14zm12.12 21l12.13 7v14l-12.13 7-12.12-7v-14zm-12.12 189l12.12 7v14l-12.12 7-12.12-7v-14zm24.25-882l12.12 7v14l-12.12 7-12.13-7v-14zm12.12 735l12.13 7v14l-12.13 7-12.12-7v-14zm-12.12 63l12.12 7v14l-12.12 7-12.13-7v-14zm0 126l12.12 7v14l-12.12 7-12.13-7v-14zm24.25-756l12.12 7v14l-12.12 7-12.13-7v-14zm0 84l12.12 7v14l-12.12 7-12.13-7v-14zm12.12 21l12.13 7v14l-12.13 7-12.12-7v-14zm0 42l12.13 7v14l-12.13 7-12.12-7v-14zm0 42l12.13 7v14l-12.13 7-12.12-7v-14zm0 84l12.13 7v14l-12.13 7-12.12-7v-14zm24.25-168l12.13 7v14l-12.13 7-12.12-7v-14zm0 42l12.13 7v14l-12.13 7-12.12-7v-14zm0 168l12.13 7v14l-12.13 7-12.12-7v-14zm0 210l12.13 7v14l-12.13 7-12.12-7v-14zm0 126l12.13 7v14l-12.13 7-12.12-7v-14zm-12.12 147l12.12 7v14l-12.12 7-12.13-7v-14zm24.25-966l12.12 7v14l-12.12 7-12.13-7v-14zm12.12 63l12.13 7v14l-12.13 7-12.12-7v-14zm0 126l12.13 7v14l-12.13 7-12.12-7v-14zm-12.12 525l12.12 7v14l-12.12 7-12.13-7v-14zm0 126l12.12 7v14l-12.12 7-12.13-7v-14zm36.37-315l12.13 7v14l-12.13 7-12.12-7v-14zm0 210l12.13 7v14l-12.13 7-12.12-7v-14zm-12.12 63l12.12 7v14l-12.12 7-12.13-7v-14zm12.12 63l12.13 7v14l-12.13 7-12.12-7v-14zm0 84l12.13 7v14l-12.13 7-12.12-7v-14zm12.13-987l12.12 7v14l-12.12 7-12.13-7v-14zm12.12 147l12.13 7v14l-12.13 7-12.12-7v-14zm0 168l12.13 7v14l-12.13 7-12.12-7v-14zm-12.12 63l12.12 7v14l-12.12 7-12.13-7v-14zm12.12 21l12.13 7v14l-12.13 7-12.12-7v-14zm-12.12 567l12.12 7v14l-12.12 7-12.13-7v-14zm12.12 63l12.13 7v14l-12.13 7-12.12-7v-14zm12.13-1071l12.12 7v14l-12.12 7-12.13-7v-14zm0 336l12.12 7v14l-12.12 7-12.13-7v-14zm0 588l12.12 7v14l-12.12 7-12.13-7v-14zm12.12 21l12.13 7v14l-12.13 7-12.12-7v-14zm0 84l12.13 7v14l-12.13 7-12.12-7v-14zm24.25-1008l12.12 7v14l-12.12 7-12.12-7v-14zm-12.12 21l12.12 7v14l-12.12 7-12.13-7v-14zm12.12 21l12.12 7v14l-12.12 7-12.12-7v-14zm-12.12 147l12.12 7v14l-12.12 7-12.13-7v-14zm12.12 147l12.12 7v14l-12.12 7-12.12-7v-14zm0 336l12.12 7v14l-12.12 7-12.12-7v-14zm-12.12 63l12.12 7v14l-12.12 7-12.13-7v-14zm0 168l12.12 7v14l-12.12 7-12.13-7v-14zm36.37-861l12.12 7v14l-12.12 7-12.13-7v-14zm-12.13 21l12.13 7v14l-12.13 7-12.12-7v-14zm0 84l12.13 7v14l-12.13 7-12.12-7v-14zm0 336l12.13 7v14l-12.13 7-12.12-7v-14zm0 42l12.13 7v14l-12.13 7-12.12-7v-14zm12.13 315l12.12 7v14l-12.12 7-12.13-7v-14zm12.12-735l12.13 7v14l-12.13 7-12.12-7v-14zm0 210l12.13 7v14l-12.13 7-12.12-7v-14zm12.13 651l12.12 7v14l-12.12 7-12.13-7v-14zm12.12-861l12.13 7v14l-12.13 7-12.12-7v-14zm0 294l12.13 7v14l-12.13 7-12.12-7v-14zm0 126l12.13 7v14l-12.13 7-12.12-7v-14zm12.13 147l12.12 7v14l-12.12 7-12.13-7v-14zm-12.13 189l12.13 7v14l-12.13 7-12.12-7v-14zm36.38-777l12.12 7v14l-12.12 7-12.13-7v-14zm-12.13 105l12.13 7v14l-12.13 7-12.12-7v-14zm0 168l12.13 7v14l-12.13 7-12.12-7v-14zm0 42l12.13 7v14l-12.13 7-12.12-7v-14zm12.13 483l12.12 7v14l-12.12 7-12.13-7v-14zm12.12-693l12.13 7v14l-12.13 7-12.12-7v-14zm12.13 21l12.12 7v14l-12.12 7-12.13-7v-14zm-12.13 105l12.13 7v14l-12.13 7-12.12-7v-14zm0 294l12.13 7v14l-12.13 7-12.12-7v-14zm12.13 189l12.12 7v14l-12.12 7-12.13-7v-14zm0 84l12.12 7v14l-12.12 7-12.13-7v-14zm0 168l12.12 7v14l-12.12 7-12.13-7v-14zm24.25-1050l12.12 7v14l-12.12 7-12.13-7v-14zm-12.13 147l12.13 7v14l-12.13 7-12.12-7v-14zm0 42l12.13 7v14l-12.13 7-12.12-7v-14zm12.13 231l12.12 7v14l-12.12 7-12.13-7v-14zm-12.13 189l12.13 7v14l-12.13 7-12.12-7v-14zm12.13 357l12.12 7v14l-12.12 7-12.13-7v-14zm24.25-714l12.12 7v14l-12.12 7-12.13-7v-14zm-12.13 231l12.13 7v14l-12.13 7-12.12-7v-14zm0 168l12.13 7v14l-12.13 7-12.12-7v-14zm12.13 21l12.12 7v14l-12.12 7-12.13-7v-14zm-12.13 231l12.13 7v14l-12.13 7-12.12-7v-14zm12.13 21l12.12 7v14l-12.12 7-12.13-7v-14zm0 126l12.12 7v14l-12.12 7-12.13-7v-14zm12.12-861l12.13 7v14l-12.13 7-12.12-7v-14zm0 42l12.13 7v14l-12.13 7-12.12-7v-14zm12.13 21l12.12 7v14l-12.12 7-12.13-7v-14zm-12.13 21l12.13 7v14l-12.13 7-12.12-7v-14zm12.13 441l12.12 7v14l-12.12 7-12.13-7v-14zm-12.13 105l12.13 7v14l-12.13 7-12.12-7v-14zm36.37-651l12.13 7v14l-12.13 7-12.12-7v-14zm0 672l12.13 7v14l-12.13 7-12.12-7v-14zm-12.12 63l12.12 7v14l-12.12 7-12.12-7v-14zm0 42l12.12 7v14l-12.12 7-12.12-7v-14zm36.37-651l12.13 7v14l-12.13 7-12.12-7v-14zm-12.12 105l12.12 7v14l-12.12 7-12.13-7v-14zm0 210l12.12 7v14l-12.12 7-12.13-7v-14zm12.12 189l12.13 7v14l-12.13 7-12.12-7v-14zm-12.12 21l12.12 7v14l-12.12 7-12.13-7v-14zm0 126l12.12 7v14l-12.12 7-12.13-7v-14zm12.12 105l12.13 7v14l-12.13 7-12.12-7v-14zm24.25-1050l12.13 7v14l-12.13 7-12.12-7v-14zm-12.12 315l12.12 7v14l-12.12 7-12.13-7v-14zm0 126l12.12 7v14l-12.12 7-12.13-7v-14zm12.12 21l12.13 7v14l-12.13 7-12.12-7v-14zm-12.12 189l12.12 7v14l-12.12 7-12.13-7v-14zm12.12 21l12.13 7v14l-12.13 7-12.12-7v-14zm-12.12 105l12.12 7v14l-12.12 7-12.13-7v-14zm12.12 21l12.13 7v14l-12.13 7-12.12-7v-14zm0 168l12.13 7v14l-12.13 7-12.12-7v-14zm0 42l12.13 7v14l-12.13 7-12.12-7v-14zm0 42l12.13 7v14l-12.13 7-12.12-7v-14zm12.13-945l12.12 7v14l-12.12 7-12.13-7v-14zm0 462l12.12 7v14l-12.12 7-12.13-7v-14zm12.12 357l12.13 7v14l-12.13 7-12.12-7v-14zm-12.12 21l12.12 7v14l-12.12 7-12.13-7v-14zm12.12 21l12.13 7v14l-12.13 7-12.12-7v-14zm0 42l12.13 7v14l-12.13 7-12.12-7v-14zm24.25-924l12.13 7v14l-12.13 7-12.12-7v-14zm0 84l12.13 7v14l-12.13 7-12.12-7v-14zm0 84l12.13 7v14l-12.13 7-12.12-7v-14zm0 168l12.13 7v14l-12.13 7-12.12-7v-14zm-12.12 189l12.12 7v14l-12.12 7-12.13-7v-14zm0 294l12.12 7v14l-12.12 7-12.13-7v-14zm24.25-840l12.12 7v14l-12.12 7-12.13-7v-14zm0 126l12.12 7v14l-12.12 7-12.13-7v-14zm0 42l12.12 7v14l-12.12 7-12.13-7v-14zm12.12 231l12.13 7v14l-12.13 7-12.12-7v-14zm0 252l12.13 7v14l-12.13 7-12.12-7v-14zm0 294l12.13 7v14l-12.13 7-12.12-7v-14zm-12.12 21l12.12 7v14l-12.12 7-12.13-7v-14zm24.25-714l12.12 7v14l-12.12 7-12.13-7v-14zm12.12 189l12.13 7v14l-12.13 7-12.12-7v-14zm0 42l12.13 7v14l-12.13 7-12.12-7v-14zm24.25-420l12.13 7v14l-12.13 7-12.12-7v-14zm0 84l12.13 7v14l-12.13 7-12.12-7v-14zm0 210l12.13 7v14l-12.13 7-12.12-7v-14zm-12.12 105l12.12 7v14l-12.12 7-12.13-7v-14zm0 126l12.12 7v14l-12.12 7-12.13-7v-14zm0 126l12.12 7v14l-12.12 7-12.13-7v-14zm12.12 231l12.13 7v14l-12.13 7-12.12-7v-14zm24.25-1008l12.12 7v14l-12.12 7-12.12-7v-14zm-12.12 147l12.12 7v14l-12.12 7-12.13-7v-14zm12.12 63l12.12 7v14l-12.12 7-12.12-7v-14zm0 126l12.12 7v14l-12.12 7-12.12-7v-14zm-12.12 63l12.12 7v14l-12.12 7-12.13-7v-14zm0 210l12.12 7v14l-12.12 7-12.13-7v-14zm36.37-567l12.12 7v14l-12.12 7-12.13-7v-14zm-12.13 63l12.13 7v14l-12.13 7-12.12-7v-14zm0 84l12.13 7v14l-12.13 7-12.12-7v-14zm12.13 189l12.12 7v14l-12.12 7-12.13-7v-14zm-12.13 189l12.13 7v14l-12.13 7-12.12-7v-14zm0 378l12.13 7v14l-12.13 7-12.12-7v-14zm24.25-966l12.13 7v14l-12.13 7-12.12-7v-14zm12.13 399l12.12 7v14l-12.12 7-12.13-7v-14zm-12.13 231l12.13 7v14l-12.13 7-12.12-7v-14zm12.13 21l12.12 7v14l-12.12 7-12.13-7v-14zm-12.13 147l12.13 7v14l-12.13 7-12.12-7v-14zm0 126l12.13 7v14l-12.13 7-12.12-7v-14zm36.38-651l12.12 7v14l-12.12 7-12.13-7v-14zm-12.13 63l12.13 7v14l-12.13 7-12.12-7v-14zm0 84l12.13 7v14l-12.13 7-12.12-7v-14zm12.13 399l12.12 7v14l-12.12 7-12.13-7v-14zm-12.13 147l12.13 7v14l-12.13 7-12.12-7v-14zm24.25-714l12.13 7v14l-12.13 7-12.12-7v-14zm0 210l12.13 7v14l-12.13 7-12.12-7v-14zm12.13 105l12.12 7v14l-12.12 7-12.13-7v-14z" stroke="rgba(12, 132, 228, 0.05)" stroke-width="2"/></g><defs><mask id="SvgjsMask1007"><path fill="#fff" d="M0 0h1920v1080H0z"/></mask></defs></svg>